<svg width="24"
  height="24"
  viewBox="0 0 24 24"
  fill="none"
  xmlns="http://www.w3.org/2000/svg">
  <g clip-path="url(#clip0_36_4)">
    <circle cx="12"
      cy="12"
      r="12"
      fill="#265D9C"/>
    <path d="M12.7646 4.3434L8.30123 8.63049C8.00314 8.91682 7.83395 9.31148 7.83395 9.72161V17.4523C7.83395 18.3035 8.55904 19 9.44527 19H16.6962C17.3407 19 17.9208 18.6286 18.1786 18.0636L20.805 12.1747C21.4818 10.6425 20.3136 8.94003 18.5814 8.94003H14.0295L14.7948 5.39583C14.8754 5.00891 14.7546 4.61424 14.4645 4.33566C13.9892 3.88683 13.2319 3.88683 12.7646 4.3434ZM4.61132 19C5.49754 19 6.22263 18.3035 6.22263 17.4523V11.2616C6.22263 10.4103 5.49754 9.71387 4.61132 9.71387C3.72509 9.71387 3 10.4103 3 11.2616V17.4523C3 18.3035 3.72509 19 4.61132 19Z"
      fill="#DEF6FF"/>
  </g>
  <defs>
    <clipPath id="clip0_36_4">
      <rect width="24"
        height="24"
        fill="white"/>
    </clipPath>
  </defs>
</svg>
